<?xml version="1.0" encoding="utf-8"?>
<!-- Generator: Adobe Illustrator 16.0.0, SVG Export Plug-In . SVG Version: 6.00 Build 0)  -->
<!DOCTYPE svg PUBLIC "-//W3C//DTD SVG 1.1//EN" "http://www.w3.org/Graphics/SVG/1.1/DTD/svg11.dtd">
<svg version="1.1" id="Capa_1" xmlns="http://www.w3.org/2000/svg" xmlns:xlink="http://www.w3.org/1999/xlink" x="0px" y="0px"
	 width="438.535px" height="438.536px" viewBox="0 0 438.535 438.536" enable-background="new 0 0 438.535 438.536"
	 xml:space="preserve">
<g>
	<path fill="#000333" d="M423.981,18.562C412.941,7.519,399.711,2,384.298,2H58.248C42.83,2,29.604,7.521,18.561,18.562
		C7.52,29.6,2.001,42.828,2.001,58.243V384.29c0,15.414,5.518,28.645,16.56,39.684c11.043,11.039,24.272,16.563,39.688,16.563
		h326.046c15.409,0,28.644-5.523,39.684-16.563c11.043-11.039,16.557-24.27,16.557-39.684V58.243
		C440.533,42.825,435.021,29.604,423.981,18.562z M159.462,160.025c17.224-16.652,37.924-24.982,62.097-24.982
		c24.36,0,45.153,8.33,62.381,24.982c17.229,16.655,25.837,36.785,25.837,60.386c0,23.598-8.608,43.729-25.837,60.379
		c-17.228,16.66-38.014,24.988-62.381,24.988c-24.172,0-44.87-8.336-62.097-24.988c-17.229-16.651-25.841-36.781-25.841-60.379
		C133.621,196.81,142.234,176.681,159.462,160.025z M390.865,372.588c0,4.945-1.718,9.084-5.141,12.416
		c-3.434,3.33-7.52,4.996-12.282,4.996H68.242c-4.948,0-9.092-1.666-12.42-4.996c-3.333-3.325-4.997-7.471-4.997-12.416V187.575
		H91.08c-3.806,11.993-5.708,24.462-5.708,37.402c0,36.553,13.321,67.715,39.969,93.511c26.65,25.786,58.721,38.685,96.217,38.685
		c24.744,0,47.583-5.902,68.527-17.703c20.937-11.807,37.485-27.838,49.676-48.111c12.183-20.271,18.273-42.4,18.273-66.38
		c0-12.94-1.909-25.406-5.715-37.402h38.547V372.59h-0.002V372.588z M390.865,117.626c0,5.52-1.902,10.184-5.716,13.99
		c-3.805,3.809-8.466,5.711-13.989,5.711h-49.676c-5.517,0-10.185-1.903-13.989-5.711c-3.807-3.806-5.708-8.47-5.708-13.99V70.522
		c0-5.33,1.901-9.945,5.708-13.848c3.806-3.901,8.474-5.854,13.989-5.854h49.676c5.523,0,10.186,1.952,13.989,5.854
		c3.813,3.903,5.716,8.518,5.716,13.848V117.626z"/>
</g>
<g>
	<path fill="#FFFFFF" d="M421.981,16.562C410.941,5.519,397.711,0,382.298,0H56.248C40.83,0,27.604,5.521,16.561,16.562
		C5.52,27.6,0.001,40.828,0.001,56.243V382.29c0,15.414,5.518,28.645,16.56,39.684c11.043,11.039,24.272,16.563,39.688,16.563
		h326.046c15.409,0,28.644-5.523,39.684-16.563c11.043-11.039,16.557-24.27,16.557-39.684V56.243
		C438.533,40.825,433.021,27.604,421.981,16.562z M157.462,158.025c17.224-16.652,37.924-24.982,62.097-24.982
		c24.36,0,45.153,8.33,62.381,24.982c17.229,16.655,25.837,36.785,25.837,60.386c0,23.597-8.608,43.729-25.837,60.378
		c-17.228,16.66-38.014,24.988-62.381,24.988c-24.172,0-44.87-8.336-62.097-24.988c-17.229-16.651-25.841-36.781-25.841-60.378
		C131.621,194.81,140.234,174.681,157.462,158.025z M388.865,370.588c0,4.945-1.718,9.084-5.141,12.416
		c-3.434,3.33-7.52,4.996-12.282,4.996H66.242c-4.948,0-9.092-1.666-12.42-4.996c-3.333-3.325-4.997-7.471-4.997-12.416V185.575
		H89.08c-3.806,11.993-5.708,24.462-5.708,37.402c0,36.553,13.321,67.715,39.969,93.511c26.65,25.786,58.721,38.685,96.217,38.685
		c24.744,0,47.583-5.902,68.527-17.703c20.937-11.807,37.485-27.838,49.676-48.111c12.183-20.271,18.273-42.4,18.273-66.38
		c0-12.94-1.909-25.406-5.715-37.402h38.547V370.59h-0.002V370.588z M388.865,115.626c0,5.52-1.902,10.184-5.716,13.99
		c-3.805,3.809-8.466,5.711-13.989,5.711h-49.676c-5.517,0-10.185-1.903-13.989-5.711c-3.807-3.806-5.708-8.47-5.708-13.99V68.522
		c0-5.33,1.901-9.945,5.708-13.848c3.806-3.901,8.474-5.854,13.989-5.854h49.676c5.523,0,10.186,1.952,13.989,5.854
		c3.813,3.903,5.716,8.518,5.716,13.848V115.626z"/>
</g>
</svg>
