<?xml version="1.0" encoding="utf-8"?>
<!-- Generator: Adobe Illustrator 16.0.0, SVG Export Plug-In . SVG Version: 6.00 Build 0)  -->
<!DOCTYPE svg PUBLIC "-//W3C//DTD SVG 1.1//EN" "http://www.w3.org/Graphics/SVG/1.1/DTD/svg11.dtd">
<svg version="1.1" id="Layer_1" xmlns="http://www.w3.org/2000/svg" xmlns:xlink="http://www.w3.org/1999/xlink" x="0px" y="0px"
	 width="50px" height="50px" viewBox="0 0 50 50" enable-background="new 0 0 50 50" xml:space="preserve">
<g>
	<g>
		<rect x="0.64" y="17.75" fill="#FFFFFF" width="10.74" height="32.25"/>
		<path fill="#FFFFFF" d="M46.63,20.69C44.37,18.23,41.39,17,37.67,17c-1.37,0-2.61,0.17-3.73,0.5c-1.12,0.34-2.06,0.81-2.83,1.42
			c-0.77,0.61-1.38,1.17-1.84,1.69c-0.43,0.49-0.86,1.07-1.27,1.72v-4.59H17.3l0.03,1.56c0.02,1.04,0.03,4.25,0.03,9.63
			c0,5.38-0.02,12.4-0.06,21.06h10.71V32c0-1.11,0.12-1.99,0.36-2.64c0.46-1.11,1.14-2.03,2.07-2.78c0.92-0.75,2.07-1.12,3.43-1.12
			c1.86,0,3.24,0.64,4.12,1.94c0.88,1.29,1.32,3.08,1.32,5.35V50h10.71V31.52C50.01,26.76,48.88,23.16,46.63,20.69z"/>
		<path fill="#FFFFFF" d="M6.07,2.23c-1.8,0-3.26,0.53-4.38,1.58C0.58,4.86,0.02,6.18,0.02,7.79c0,1.58,0.54,2.91,1.63,3.97
			c1.08,1.06,2.52,1.59,4.3,1.59h0.07c1.82,0,3.29-0.53,4.41-1.59c1.12-1.06,1.67-2.39,1.65-3.97c-0.02-1.61-0.58-2.93-1.66-3.99
			C9.32,2.75,7.88,2.23,6.07,2.23z"/>
	</g>
</g>
</svg>
