<?xml version="1.0" encoding="utf-8"?>
<!-- Generator: Adobe Illustrator 16.0.0, SVG Export Plug-In . SVG Version: 6.00 Build 0)  -->
<!DOCTYPE svg PUBLIC "-//W3C//DTD SVG 1.1//EN" "http://www.w3.org/Graphics/SVG/1.1/DTD/svg11.dtd">
<svg version="1.1" id="Layer_1" xmlns="http://www.w3.org/2000/svg" xmlns:xlink="http://www.w3.org/1999/xlink" x="0px" y="0px"
	 width="21.94px" height="15.91px" viewBox="0 0 21.94 15.91" enable-background="new 0 0 21.94 15.91" xml:space="preserve">
<g>
	<path fill="#666666" d="M21.94,0.95c0,0.53-0.43,0.95-0.95,0.95H0.95C0.43,1.91,0,1.48,0,0.95l0,0C0,0.43,0.43,0,0.95,0h20.03
		C21.51,0,21.94,0.43,21.94,0.95L21.94,0.95z"/>
	<path fill="#666666" d="M21.94,7.95c0,0.53-0.43,0.95-0.95,0.95H0.95C0.43,8.91,0,8.48,0,7.95l0,0C0,7.43,0.43,7,0.95,7h20.03
		C21.51,7,21.94,7.43,21.94,7.95L21.94,7.95z"/>
	<path fill="#666666" d="M21.94,14.95c0,0.53-0.43,0.95-0.95,0.95H0.95C0.43,15.91,0,15.48,0,14.95l0,0C0,14.43,0.43,14,0.95,14
		h20.03C21.51,14,21.94,14.43,21.94,14.95L21.94,14.95z"/>
</g>
</svg>
